<?xml version="1.0" encoding="utf-8"?>
<!-- Generator: Adobe Illustrator 21.0.2, SVG Export Plug-In . SVG Version: 6.00 Build 0)  -->
<svg version="1.1" id="Layer_1" xmlns="http://www.w3.org/2000/svg" xmlns:xlink="http://www.w3.org/1999/xlink" x="0px" y="0px"
	 viewBox="0 0 2834.6 1417.3" style="enable-background:new 0 0 2834.6 1417.3;" xml:space="preserve">
<style type="text/css">
	.st0{fill:#C54328;}
	.st1{fill:#FFFFFF;}
	.st2{fill:#063262;}
</style>
<g>
	<g>
		<g>
			<path class="st1" d="M570.6,877.9c-24.1-29.3-48.1-58.5-72.1-87.7c-9.2-11.2-18.5-22.3-27.7-33.6c-55.3-68.4-18.4-171,67.9-188.8
				c66.9-13.8,130.3,24.8,145.1,89c7.6,32.9,2.2,64.1-17.6,91.7c-30.4,42.5-61.7,84.5-92.7,126.7C573,876,572,876.6,570.6,877.9z
				 M633.5,672.8c-0.9-36.7-31.8-65.5-69.3-64.6c-37.7,0.9-67.5,30.8-66.8,67.3c0.7,37.1,32.2,66.5,69.9,65.3
				C605,739.6,634.4,709.3,633.5,672.8z"/>
		</g>
		<g>
			<path class="st1" d="M548.9,951.3c1.1-2.4-0.6-5.2-3.2-5.4c-23.3-2.5-46.6-8.5-69.1-18.4c-81-35.6-131.6-111.8-138.4-194.2
				c-0.1-1.4-1-2.7-2.3-3.2l-77.5-34.1c-2.5-1.1-5.4,0.6-5.6,3.4c-5.6,119.8,57.3,236.4,167.7,295.2c0.9,0.5,1.6,1.3,1.9,2.4
				l31.5,112.2c3.4,11.9,19.8,13.1,24.8,1.7L548.9,951.3z"/>
			<path class="st1" d="M591.9,477.1c-1.1,2.4,0.6,5.2,3.2,5.4c23.3,2.5,46.6,8.5,69.1,18.4c81,35.6,131.6,111.8,138.4,194.2
				c0.1,1.4,1,2.7,2.3,3.2l77.5,34.1c2.5,1.1,5.4-0.6,5.6-3.4c5.6-119.8-57.3-236.4-167.7-295.2c-0.9-0.5-1.6-1.3-1.9-2.4
				l-31.5-112.1c-3.4-11.9-19.8-13.1-24.8-1.7L591.9,477.1z"/>
			<path class="st1" d="M333.3,692.7c2.4,1.1,5.2-0.6,5.4-3.2c2.5-23.3,8.5-46.6,18.4-69.1c35.6-81,111.8-131.6,194.3-138.4
				c1.4-0.1,2.7-1,3.2-2.3l34.1-77.5c1.1-2.5-0.6-5.4-3.4-5.6C465.5,391,348.9,454,290,564.3c-0.5,0.9-1.3,1.6-2.4,1.9l-112.3,31.6
				c-11.9,3.3-13.1,19.8-1.7,24.8L333.3,692.7z"/>
			<path class="st1" d="M807.5,735.7c-2.4-1.1-5.2,0.6-5.4,3.2c-2.5,23.3-8.5,46.5-18.4,69.1C748,889,671.8,939.6,589.4,946.4
				c-1.4,0.1-2.7,1-3.2,2.3l-34.1,77.5c-1.1,2.5,0.7,5.4,3.4,5.6c119.8,5.6,236.4-57.3,295.2-167.7c0.5-0.9,1.3-1.6,2.4-1.9
				l112.2-31.5c11.9-3.4,13.1-19.8,1.7-24.8L807.5,735.7z"/>
		</g>
	</g>
	<g>
		<path class="st1" d="M1258.8,805.5h-40.6c-0.9,0-1.8-0.5-2.3-1.3l-37.7-64c-1-1.8-3.5-1.7-4.6,0l-37.2,63.9
			c-0.5,0.8-1.3,1.3-2.3,1.3h-40.6c-2.1,0-3.4-2.4-2.2-4.2l61.8-96.1c0.6-0.9,0.6-2.1,0-3l-57.7-91.1c-1.1-1.8,0.1-4.2,2.2-4.2h40.4
			c0.9,0,1.8,0.5,2.3,1.4l33.3,58.8c1,1.8,3.6,1.8,4.6,0l33.9-58.8c0.5-0.8,1.3-1.3,2.3-1.3h40.1c2.1,0,3.4,2.4,2.2,4.2l-57.7,91.1
			c-0.6,0.9-0.6,2.1,0,3l62,96.1C1262.2,803.1,1261,805.5,1258.8,805.5z"/>
		<path class="st1" d="M1407.1,721.5c0,41.5-10.5,67.9-31.5,79.5c-6.1,3.3-13.1,5.4-21.1,6.4c-6.3,0.8-12.7-0.9-18.1-4.5l-14.5-9.5
			c-1.8-1.2-4.1,0.1-4.1,2.3v54.5c0,1.5-1.2,2.7-2.7,2.7H1285c-1.5,0-2.7-1.2-2.7-2.7V650.1c0-1.5,1.2-2.7,2.7-2.7h67.4
			c21.2,0,35.6,6.1,43.2,18.3C1403.3,677.8,1407.1,696.4,1407.1,721.5z M1371.6,727.1c0-31.4-9.8-47.1-29.5-47.1h-21.4
			c-1.5,0-2.7,1.2-2.7,2.7v69.7c0,0.9,0.5,1.8,1.2,2.3l22.2,14.6c0.4,0.3,1,0.5,1.5,0.4c10.1-0.2,17.4-3.6,21.9-10.2
			C1369.3,752.8,1371.6,742,1371.6,727.1z"/>
		<path class="st1" d="M1467.1,805.5l-30.3,0.2c-1.5,0-2.7-1.2-2.7-2.7V610c0-1.5,1.2-2.7,2.7-2.7h30.3c1.5,0,2.7,1.2,2.7,2.7v192.8
			C1469.8,804.3,1468.6,805.5,1467.1,805.5z"/>
		<path class="st1" d="M1628.2,725.2c0,34.4-6.4,57.4-19.2,69.2c-10.8,10-26.4,15.1-46.8,15.1c-26.1,0-43.7-7.8-52.8-23.4
			c-8.6-14.3-12.9-34.6-12.9-60.8c0-24.5,4.3-43.8,12.9-57.7c9.5-15.6,26.8-23.4,51.8-23.4c25.1,0,42.5,6.8,52.3,20.5
			C1623.3,678.2,1628.2,698.4,1628.2,725.2z M1592.6,733.5V719c0-13.8-2-24.3-5.9-31.5c-3.9-7.3-12.1-10.9-24.5-10.9
			c-20.1,0-30.1,13.8-30.1,41.3v14.5c0,29.6,10,44.3,30.1,44.3c12.9,0,21.4-4.9,25.4-14.8C1591,754.2,1592.6,744.7,1592.6,733.5z"/>
		<path class="st1" d="M1739,648.8l-8.6,31c-0.4,1.4-1.8,2.2-3.2,1.9c-2.1-0.6-4.4-0.8-6.8-0.8c-8.8,0-19.6,3.7-32.3,11.2
			c-0.8,0.5-1.3,1.4-1.3,2.4v108.4c0,1.5-1.2,2.7-2.7,2.7h-30.3c-1.5,0-2.7-1.2-2.7-2.7V649c0-1.5,1.2-2.7,2.7-2.7h22.4
			c0.9,0,1.8,0.5,2.3,1.3l6.3,10.6c0.7,1.1,2.1,1.6,3.3,1.1l35.3-14.8c0.3-0.1,0.5-0.2,0.8-0.2c1.8-0.2,4.1-0.2,7-0.2
			c2.4,0,4.5,0.5,6.6,1.6C1738.8,646.2,1739.3,647.5,1739,648.8z"/>
		<path class="st1" d="M1877.9,734.4H1792c-1.5,0-2.7,1.2-2.7,2.8c0.3,13.1,2.5,22.8,6.7,29c4.5,6.7,13.4,10,26.9,10
			c8.8,0,15.2-2.8,19.4-8.5c3.6-4.8,5.6-9.5,6.2-14c0.2-1.3,1.3-2.3,2.6-2.3h26.8c1.5,0,2.7,1.3,2.7,2.8c-0.5,18.5-5.7,32.2-15.7,41
			c-10.5,9.3-24.4,13.9-41.6,13.9c-17.2,0-30.6-2.5-40.1-7.5c-19.5-10.2-29.3-37.4-29.3-81.4c0-26.2,5.6-45.4,16.7-57.6
			c11.1-12.2,28.1-18.3,50.9-18.3c39.6,0,59.4,22.4,59.4,67.2c0,4.4-0.2,11.2-0.5,20.2C1880.5,733.2,1879.3,734.4,1877.9,734.4z
			 M1792.9,709.5h53.1c1.5,0,2.7-1.2,2.7-2.8c-0.3-10.9-2.6-18.9-6.8-24c-4.6-5.6-11.5-8.4-20.9-8.4c-9.4,0-16.9,2.8-22.4,8.5
			c-5.1,5.2-7.9,13.2-8.3,23.9C1790.2,708.3,1791.4,709.5,1792.9,709.5z"/>
		<path class="st1" d="M1931.3,607.3c8.6,0,14.1,1,16.7,3.1c2.6,2.1,3.8,6.4,3.8,13c0,6.6-1.3,10.9-4,13c-2.6,2.1-8.2,3.1-16.7,3.1
			c-8.5,0-14-1.1-16.7-3.2c-2.6-2.1-4-6.4-4-13c0-6.5,1.3-10.8,4-12.9C1917.2,608.3,1922.8,607.3,1931.3,607.3z M1946.2,805.5h-30.3
			c-1.5,0-2.7-1.2-2.7-2.7v-148c0-1.5,1.2-2.7,2.7-2.7h30.3c1.5,0,2.7,1.2,2.7,2.7v148C1948.8,804.3,1947.7,805.5,1946.2,805.5z"/>
		<path class="st1" d="M2055.3,802.8c0,1.5-1.2,2.7-2.7,2.7h-19.5c-13.5,0-23.8-4.1-30.8-12.3c-7-8.2-10.5-17.9-10.5-29.3V683
			c0-1.5-1.2-2.7-2.7-2.7h-9.7c-1.5,0-2.7-1.2-2.7-2.7v-22.2c0-1.5,1.2-2.7,2.7-2.7h9.7c1.5,0,2.7-1.2,2.7-2.7v-25.8
			c0-1.5,1.2-2.7,2.7-2.7h30.3c1.5,0,2.7,1.2,2.7,2.7V650c0,1.5,1.2,2.7,2.7,2.7h19.9c1.5,0,2.7,1.2,2.7,2.7v22.2
			c0,1.5-1.2,2.7-2.7,2.7H2030c-1.5,0-2.7,1.2-2.7,2.7v78.7c0,8.7,4.1,13.1,12.3,13.1h12.9c1.5,0,2.7,1.2,2.7,2.7V802.8z"/>
		<path class="st1" d="M2228.7,749.7c0,18.6-4.9,32.9-14.6,42.8c-9.8,10-23.4,14.9-40.9,14.9h-26.3c-21.5,0-36.8-3.8-45.8-11.5
			c-9-7.7-13.5-21-13.5-40V609.7c0-1.5,1.2-2.7,2.7-2.7h79.7c18.6,0,32.6,4.8,42,14.4c9.4,9.6,14.1,23.1,14.1,40.6
			c0,10.1-2.5,18.8-7.5,25.9c-3.9,5.5-8.1,9.8-12.6,12.9c-1.6,1.1-1.5,3.6,0.2,4.6C2221.2,714.2,2228.7,729,2228.7,749.7z
			 M2166.9,685.2c11.3,0,18.1-4.7,20.3-14.2c3.5-15-8.3-29.2-23.3-29.2l-35.7,0c-1.5,0-2.7,1.2-2.7,2.7v37.9c0,1.5,1.2,2.7,2.7,2.7
			H2166.9z M2190.7,747.7c0-9-1.6-15.8-4.7-20.4c-3.1-4.6-8.7-6.9-16.7-6.9h-41.1c-1.5,0-2.7,1.2-2.7,2.7V752
			c0,7.7,1.9,13.1,5.6,16.1c3.7,3,9.9,4.5,18.5,4.5h19.7C2183.6,772.5,2190.7,764.3,2190.7,747.7z"/>
		<path class="st1" d="M2416.8,606.9c1.5,0,2.7,1.2,2.7,2.7v175.8c0,6.1-1.8,11.4-5.5,15.8c-3.7,4.4-7.9,6.6-12.9,6.6
			c-12.6,0-22.9-7.4-30.9-22.3l-62.4-99.5c-1.4-2.3-4.9-1.2-4.9,1.5v115.5c0,1.5-1.2,2.7-2.7,2.7h-32.7c-1.5,0-2.7-1.2-2.7-2.7
			V609.6c0-1.5,1.2-2.7,2.7-2.7h32.5c0.9,0,1.8,0.5,2.3,1.3l74.2,120.7c1.4,2.3,4.9,1.3,4.9-1.4V609.6c0-1.5,1.2-2.7,2.7-2.7H2416.8
			z"/>
		<path class="st1" d="M2600,749.7c0,18.6-4.9,32.9-14.6,42.8c-9.8,10-23.4,14.9-40.9,14.9h-26.3c-21.5,0-36.8-3.8-45.8-11.5
			c-9-7.7-13.5-21-13.5-40V609.7c0-1.5,1.2-2.7,2.7-2.7h79.7c18.6,0,32.6,4.8,42,14.4c9.4,9.6,14.1,23.1,14.1,40.6
			c0,10.1-2.5,18.8-7.5,25.9c-3.9,5.5-8.1,9.8-12.6,12.9c-1.6,1.1-1.5,3.6,0.2,4.6C2592.5,714.2,2600,729,2600,749.7z M2538.2,685.2
			c11.3,0,18.1-4.7,20.3-14.2c3.5-15-8.3-29.2-23.3-29.2l-35.7,0c-1.5,0-2.7,1.2-2.7,2.7v37.9c0,1.5,1.2,2.7,2.7,2.7H2538.2z
			 M2562,747.7c0-9-1.6-15.8-4.7-20.4c-3.1-4.6-8.7-6.9-16.7-6.9h-41.1c-1.5,0-2.7,1.2-2.7,2.7V752c0,7.7,1.9,13.1,5.6,16.1
			c3.7,3,9.9,4.5,18.5,4.5h19.7C2554.9,772.5,2562,764.3,2562,747.7z"/>
	</g>
</g>
</svg>
