<svg width="59" height="53" viewBox="0 0 59 53" fill="none" xmlns="http://www.w3.org/2000/svg">
<path d="M55.6948 32.5335C53.1022 32.5335 50.5473 32.5335 47.9453 32.5335C47.9453 32.4049 47.9453 32.2763 47.9453 32.1569C47.9453 29.8606 47.9453 27.5644 47.9453 25.2681C47.9453 24.322 47.4645 23.8444 46.4934 23.8444C44.7305 23.8444 42.9581 23.8444 41.1951 23.8444C40.2241 23.8444 39.7527 24.322 39.7527 25.2773C39.7527 27.5644 39.7527 29.8423 39.7527 32.1293C39.7527 32.2579 39.7527 32.3773 39.7527 32.5243C37.1601 32.5243 34.5958 32.5243 32.0032 32.5243C31.9938 32.4233 31.9844 32.3314 31.9844 32.2304C31.9844 29.4106 31.9844 26.5816 31.9938 23.7618C31.9938 23.6148 32.0692 23.4219 32.1824 23.3209C36.0005 19.5917 39.8281 15.8718 43.6557 12.1427C43.7123 12.0875 43.7783 12.0324 43.8537 11.9681C43.948 12.0508 44.0328 12.1243 44.1083 12.1978C47.8982 15.8902 51.6975 19.5826 55.4779 23.2749C55.5911 23.3852 55.7042 23.5597 55.7042 23.7066C55.7136 26.5908 55.7136 29.4657 55.7136 32.3498C55.7136 32.3957 55.7042 32.4508 55.6948 32.5335ZM46.1918 18.8478C46.1823 17.5986 45.1359 16.5699 43.8537 16.5699C42.5621 16.5699 41.5062 17.5986 41.5062 18.8753C41.5157 20.1245 42.5621 21.144 43.8443 21.1532C45.1453 21.1532 46.1918 20.1245 46.1918 18.8478Z" fill="#646464"/>
<path d="M43.8199 11.121C43.7002 11.2948 43.6358 11.4046 43.5437 11.4961C39.7052 15.321 35.8574 19.1458 32.0096 22.9707C31.6138 23.3641 31.1628 23.5655 30.6105 23.4373C29.7083 23.2269 29.3125 22.138 29.8648 21.3877C29.9477 21.2779 30.0489 21.1772 30.141 21.0857C34.3478 16.904 38.5453 12.7223 42.7521 8.54972C43.4701 7.83599 44.1973 7.83599 44.9153 8.54057C49.1313 12.7314 53.338 16.9223 57.554 21.104C57.9682 21.5158 58.1799 21.9733 58.005 22.5589C57.7289 23.4556 56.6427 23.7851 55.9063 23.1903C55.7958 23.1079 55.7038 23.0073 55.6025 22.9066C51.8008 19.1184 47.9806 15.3301 44.1697 11.5327C44.0776 11.4321 43.9948 11.3223 43.8199 11.121Z" fill="#646464"/>
<path d="M43.8749 33.5391C48.1921 33.5391 52.5001 33.5391 56.8173 33.5391C57.0106 33.5391 57.2132 33.5483 57.3973 33.6032C57.8391 33.7405 58.0968 34.1614 58.0692 34.6097C58.0324 35.0764 57.701 35.4516 57.2408 35.5339C57.0843 35.5614 56.9186 35.5614 56.7621 35.5614C48.1553 35.5614 39.5484 35.5614 30.9508 35.5614C30.7943 35.5614 30.6286 35.5614 30.4721 35.5339C29.975 35.4516 29.6252 35.0124 29.6345 34.5091C29.6529 34.015 30.0303 33.5941 30.5366 33.5391C30.6838 33.5208 30.8311 33.53 30.9876 33.53C35.268 33.5391 39.5668 33.5391 43.8749 33.5391Z" fill="#646464"/>
<path d="M34.4678 36.3393C35.8762 36.3393 37.2477 36.3393 38.6561 36.3393C38.6561 37.0713 38.6653 37.7851 38.6469 38.4988C38.6469 38.572 38.5457 38.6635 38.472 38.7001C37.7172 39.1302 36.9532 39.5511 36.1983 39.9628C36.1247 39.9994 36.005 40.0177 35.9222 39.9903C35.4988 39.853 35.0753 39.7158 34.6611 39.5602C34.5874 39.5328 34.477 39.4321 34.477 39.3681C34.4678 38.3707 34.4678 37.3641 34.4678 36.3393Z" fill="#646464"/>
<path d="M49.0215 36.3484C50.4299 36.3484 51.8014 36.3484 53.2098 36.3484C53.2098 36.751 53.2098 37.1353 53.2098 37.5197C53.2098 38.1053 53.2006 38.6818 53.2098 39.2674C53.2098 39.4687 53.1454 39.5327 52.9521 39.5876C52.5747 39.6883 52.2065 39.8164 51.8475 39.9628C51.6818 40.0269 51.5805 40.0269 51.4148 39.9262C50.706 39.5144 49.9788 39.1301 49.2608 38.7275C49.1688 38.6818 49.0307 38.5994 49.0307 38.5262C49.0215 37.8033 49.0215 37.0804 49.0215 36.3484Z" fill="#646464"/>
<path d="M41.1154 15.265L47.132 15.6618L49.5386 32.3301H39.1099L41.1154 15.265Z" fill="#646464"/>
<path d="M45.7282 20.8122L31.0331 5.16908L20.1304 3.74698V52.0984H40.5138L46.6762 43.0917L42.4099 36.9293V25.5525C42.4099 25.5525 44.3061 25.0785 45.2541 24.1304C46.2022 23.1823 45.7282 20.8122 45.7282 20.8122Z" fill="#F5F5F5"/>
<path d="M39.7125 38.3957C35.8318 38.3957 32.0076 38.3957 28.1129 38.3957C28.1129 38.1993 28.1129 38.0029 28.1129 37.8206C28.1129 34.3137 28.1129 30.8069 28.1129 27.3C28.1129 25.8552 27.3932 25.1257 25.9397 25.1257C23.3009 25.1257 20.6479 25.1257 18.0091 25.1257C16.5556 25.1257 15.85 25.8552 15.85 27.314C15.85 30.8069 15.85 34.2857 15.85 37.7785C15.85 37.9749 15.85 38.1572 15.85 38.3817C11.9694 38.3817 8.13104 38.3817 4.25039 38.3817C4.23628 38.2274 4.22217 38.0871 4.22217 37.9328C4.22217 33.6264 4.22217 29.3059 4.23628 24.9995C4.23628 24.7751 4.34917 24.4805 4.51851 24.3262C10.2337 18.631 15.9629 12.9499 21.6922 7.2548C21.7768 7.17064 21.8756 7.08647 21.9885 6.98828C22.1296 7.11453 22.2566 7.22675 22.3695 7.33897C28.0423 12.978 33.7292 18.617 39.3879 24.256C39.5573 24.4244 39.7266 24.6909 39.7266 24.9153C39.7407 29.3199 39.7407 33.7105 39.7407 38.1151C39.7407 38.1853 39.7266 38.2694 39.7125 38.3957ZM25.4881 17.4948C25.474 15.5871 23.9077 14.016 21.9885 14.016C20.0552 14.016 18.4747 15.5871 18.4747 17.5369C18.4889 19.4446 20.0552 21.0017 21.9744 21.0157C23.9218 21.0157 25.4881 19.4446 25.4881 17.4948Z" fill="#646464"/>
<path d="M21.9462 5.19282C21.7627 5.45934 21.6639 5.62767 21.5228 5.76794C15.6383 11.6314 9.73974 17.4949 3.84115 23.3583C3.23436 23.9615 2.54289 24.2701 1.69621 24.0737C0.313284 23.7511 -0.293509 22.0818 0.553179 20.9316C0.680182 20.7633 0.835408 20.609 0.976523 20.4687C7.42546 14.0581 13.8603 7.64761 20.3092 1.25111C21.4099 0.156968 22.5247 0.156969 23.6254 1.23708C30.0885 7.66164 36.5374 14.0862 43.0004 20.4967C43.6355 21.128 43.96 21.8293 43.6919 22.7271C43.2686 24.1018 41.6034 24.6068 40.4745 23.695C40.3052 23.5687 40.164 23.4144 40.0088 23.2601C34.1808 17.4528 28.3245 11.6454 22.4824 5.82405C22.3413 5.66975 22.2143 5.50142 21.9462 5.19282Z" fill="#646464"/>
<path d="M22.0304 39.5598C28.6487 39.5598 35.2529 39.5598 41.8711 39.5598C42.1675 39.5598 42.4779 39.5739 42.7602 39.658C43.4375 39.8684 43.8326 40.5137 43.7903 41.201C43.7338 41.9164 43.2258 42.4916 42.5203 42.6178C42.2804 42.6599 42.0264 42.6599 41.7865 42.6599C28.5922 42.6599 15.398 42.6599 2.21792 42.6599C1.97802 42.6599 1.72402 42.6599 1.48412 42.6178C0.722103 42.4916 0.185868 41.8182 0.199979 41.0467C0.228202 40.2893 0.806772 39.644 1.5829 39.5598C1.80869 39.5318 2.03447 39.5458 2.27436 39.5458C8.83619 39.5598 15.4262 39.5598 22.0304 39.5598Z" fill="#646464"/>
<path d="M26.9559 38.3956C23.6115 38.3956 20.3376 38.3956 17.0355 38.3956C17.0214 38.1992 17.0073 38.0309 17.0073 37.8625C17.0073 34.3557 17.0073 30.8488 17.0073 27.342C17.0073 26.4723 17.2049 26.2759 18.108 26.2759C20.7045 26.2759 23.2869 26.2759 25.8834 26.2759C26.7725 26.2759 26.9559 26.4723 26.9559 27.37C26.9559 30.8628 26.9559 34.3417 26.9559 37.8345C26.9559 38.0028 26.9559 38.1711 26.9559 38.3956ZM19.0817 31.9991C18.5878 32.0131 18.1786 32.4199 18.1786 32.9109C18.1786 33.4299 18.5878 33.8367 19.124 33.8226C19.6462 33.8086 20.0413 33.3878 20.0131 32.8688C19.9848 32.3778 19.5756 31.985 19.0817 31.9991Z" fill="#646464"/>
<path d="M7.60889 43.8524C9.76794 43.8524 11.8705 43.8524 14.0296 43.8524C14.0296 44.9746 14.0437 46.0687 14.0155 47.1628C14.0155 47.275 13.8603 47.4153 13.7474 47.4714C12.5902 48.1307 11.419 48.776 10.2618 49.4072C10.1489 49.4633 9.9655 49.4914 9.8385 49.4493C9.18937 49.2389 8.54024 49.0285 7.90523 48.79C7.79234 48.7479 7.623 48.5936 7.623 48.4954C7.60889 46.9664 7.60889 45.4234 7.60889 43.8524Z" fill="#646464"/>
<path d="M29.9194 43.8665C32.0785 43.8665 34.1811 43.8665 36.3401 43.8665C36.3401 44.4837 36.3401 45.0728 36.3401 45.662C36.3401 46.5598 36.326 47.4435 36.3401 48.3412C36.3401 48.6498 36.2414 48.748 35.945 48.8322C35.3665 48.9865 34.802 49.1829 34.2517 49.4073C33.9976 49.5055 33.8424 49.5055 33.5884 49.3512C32.5018 48.72 31.387 48.1308 30.2863 47.5136C30.1452 47.4435 29.9335 47.3172 29.9335 47.205C29.9194 46.0968 29.9194 44.9887 29.9194 43.8665Z" fill="#646464"/>
</svg>
