<svg width="48" height="45" viewBox="0 0 48 45" fill="none" xmlns="http://www.w3.org/2000/svg">
<path d="M0.0419922 31.279C0.89824 28.3332 1.7862 25.355 2.64245 22.4091C3.34013 19.9812 4.06953 17.5857 4.76721 15.1902C4.79892 15.0607 4.86235 14.9313 4.9892 14.8341C4.9892 14.996 4.9892 15.1579 4.9892 15.3197C4.9892 19.5604 4.95749 23.7687 4.9892 28.0094C5.02092 31.0524 6.32114 33.3508 8.9216 34.8723C10.095 35.5521 11.3635 35.7787 12.6954 35.7787C21.9239 35.7787 31.1523 35.7787 40.4125 35.7787C40.6028 35.7787 40.8248 35.7787 41.0785 35.7787C41.015 35.9729 40.9833 36.1024 40.9516 36.2319C40.4125 38.0123 39.8417 39.7928 39.3025 41.6056C38.5414 44.0658 36.2581 45.3607 33.7845 44.6809C26.3003 42.6415 18.816 40.602 11.3001 38.5303C8.73132 37.8181 6.19429 37.1059 3.62555 36.4261C1.72278 35.9081 0.517685 34.7104 0.105418 32.7357C0.105418 32.7033 0.0419922 32.671 0.0419922 32.6386C0.0419922 32.153 0.0419922 31.6998 0.0419922 31.279Z" fill="#828282"/>
<path d="M27.7273 32.7034C22.8435 32.7034 17.9597 32.7034 13.076 32.7034C10.5389 32.7034 8.60445 31.1496 8.06533 28.7217C7.97019 28.3009 7.93848 27.8477 7.93848 27.3945C7.93848 20.1756 7.93848 12.9567 7.93848 5.73777C7.93848 2.59771 10.0632 0.428802 13.1711 0.428802C22.8752 0.428802 32.6111 0.428802 42.3152 0.428802C45.3914 0.428802 47.5162 2.59771 47.5162 5.7054C47.5162 12.989 47.5162 20.2403 47.5162 27.524C47.5162 30.1461 45.8671 32.1855 43.3935 32.6387C43.0129 32.7034 42.6007 32.7034 42.1884 32.7034C37.368 32.7034 32.5477 32.7034 27.7273 32.7034ZM43.4252 19.6576C43.4569 19.6576 43.4886 19.6252 43.5203 19.6252C43.5203 19.4958 43.5203 19.3339 43.5203 19.2044C43.5203 14.7371 43.5203 10.2374 43.5203 5.77014C43.5203 4.76662 43.2032 4.47527 42.2518 4.47527C32.5794 4.47527 22.8752 4.47527 13.2028 4.47527C12.2197 4.47527 11.9026 4.79899 11.9026 5.80251C11.9026 11.856 11.9026 17.9095 11.9026 23.9631C11.9026 24.1249 11.9026 24.2544 11.9026 24.5134C12.0929 24.3192 12.2197 24.222 12.3466 24.0926C13.9322 22.4416 15.5496 20.823 17.1669 19.172C18.816 17.4887 20.8456 17.4887 22.463 19.172C23.1924 19.9166 23.8901 20.6611 24.6195 21.4381C24.8097 21.1791 24.9683 20.9849 25.1269 20.823C27.3785 18.0714 29.5984 15.3198 31.85 12.5682C33.4039 10.6583 35.7824 10.6583 37.368 12.5358C38.4146 13.766 39.4611 15.0285 40.5076 16.2586C41.5224 17.3916 42.4738 18.5246 43.4252 19.6576Z" fill="#828282"/>
<path d="M17.8332 14.5428C15.645 14.5428 13.8691 12.73 13.9008 10.4964C13.9008 8.26271 15.7084 6.4499 17.8966 6.48227C20.0531 6.51464 21.829 8.35983 21.7973 10.5611C21.7656 12.7624 19.9897 14.5428 17.8332 14.5428Z" fill="#828282"/>
</svg>
