<svg width="53" height="53" viewBox="0 0 53 53" fill="none" xmlns="http://www.w3.org/2000/svg">
<path d="M0.709961 24.7927C0.845501 23.8042 0.926824 22.8158 1.11658 21.8411C2.94637 12.4921 8.15109 5.76529 16.8256 2.11357C25.0393 -1.34595 33.0768 -0.494798 40.6942 4.20027C41.2905 4.57093 41.8598 4.99651 42.524 5.46327C42.524 5.20243 42.524 5.02396 42.524 4.83177C42.524 3.77469 42.4968 2.70389 42.5375 1.64681C42.5646 0.754474 43.2423 0.109245 44.0691 0.109245C44.8959 0.122974 45.56 0.768202 45.5736 1.67427C45.5872 4.07671 45.5872 6.47916 45.5736 8.8816C45.5736 9.78767 44.9772 10.4192 44.0827 10.4329C41.6972 10.4604 39.3117 10.4604 36.9126 10.4329C36.0045 10.4192 35.3539 9.67784 35.3946 8.84042C35.4352 8.00299 36.0858 7.38522 36.9804 7.37149C37.8614 7.35777 38.7424 7.35777 39.6234 7.35777C39.637 7.35777 39.6505 7.34404 39.7047 7.30285C39.6099 7.22048 39.5285 7.12439 39.4201 7.05575C35.0557 4.15908 30.2576 2.79998 25.0529 3.28047C16.4597 4.04926 10.0622 8.35993 6.19932 16.1301C2.64818 23.2551 2.94637 30.4762 6.55172 37.5737C6.74148 37.9306 6.94479 38.315 6.999 38.6994C7.12099 39.427 6.67371 40.0859 6.00956 40.3056C5.30476 40.5527 4.51863 40.3056 4.19333 39.5917C3.43431 37.9855 2.66173 36.3793 2.0518 34.7182C1.30634 32.7276 0.940378 30.6272 0.791285 28.4993C0.777731 28.362 0.737069 28.2384 0.709961 28.1012C0.709961 26.9892 0.709961 25.8909 0.709961 24.7927Z" fill="#646464"/>
<path d="M9.15436 52.7982C8.19203 52.455 7.86673 51.7412 7.88029 50.7253C7.9345 48.5699 7.89384 46.4009 7.89384 44.2455C7.89384 43.0374 8.47666 42.4471 9.66941 42.4334C11.9058 42.4334 14.1422 42.4197 16.3786 42.4334C17.612 42.4334 18.3711 43.4356 17.9915 44.5064C17.7747 45.1241 17.2461 45.4948 16.5413 45.5085C15.7958 45.5223 15.0503 45.5085 14.3049 45.5085C14.1422 45.5085 13.9796 45.5085 13.7763 45.6184C13.9389 45.7282 14.088 45.8517 14.2507 45.9478C18.5879 48.7484 23.3183 50.0526 28.4552 49.5995C36.6283 48.8719 42.8631 44.8633 46.8208 37.6285C50.8328 30.2839 50.7108 22.7471 46.9157 15.2789C46.7666 14.9769 46.5769 14.6749 46.4955 14.3454C46.3193 13.6041 46.7124 12.8627 47.3901 12.5882C48.1085 12.2999 48.9488 12.547 49.3012 13.302C50.0602 14.8945 50.887 16.4595 51.4292 18.1206C55.78 31.5606 49.1792 45.7831 36.2216 50.9861C33.8497 51.9333 31.3829 52.4962 28.8212 52.6884C28.6721 52.7021 28.523 52.7433 28.3739 52.7708C27.3167 52.7708 26.273 52.7708 25.2158 52.7708C25.0667 52.7433 24.9176 52.7021 24.7685 52.6884C19.8755 52.3177 15.457 50.6566 11.4856 47.76C11.3365 47.6501 11.1739 47.5403 10.9435 47.3756C10.9435 48.5562 10.9028 49.6133 10.957 50.6703C10.9977 51.7 10.6589 52.4276 9.65586 52.7708C9.49321 52.7982 9.31701 52.7982 9.15436 52.7982Z" fill="#646464"/>
<path d="M26.7055 40.3466C25.7432 40.3466 24.7808 40.3466 23.8049 40.3466C22.7884 40.3466 22.1649 39.7151 22.1514 38.6855C22.1514 38.0814 22.3411 37.3813 22.0836 36.9145C21.8396 36.4615 21.1213 36.2968 20.6604 35.9398C20.308 35.679 20.0369 35.6378 19.6845 35.8987C19.305 36.1732 18.8713 36.4066 18.4511 36.6262C17.6243 37.0656 16.8246 36.8459 16.3503 36.0359C15.3337 34.2787 14.3172 32.5078 13.3277 30.7368C12.8804 29.9269 13.1109 29.1032 13.897 28.5952C14.3443 28.3207 14.7915 28.0461 15.2659 27.799C15.4964 27.6754 15.6048 27.5244 15.5777 27.2361C15.537 26.7007 15.537 26.179 15.5777 25.6436C15.5912 25.3553 15.5099 25.2043 15.2659 25.0808C14.8051 24.8337 14.3443 24.5591 13.897 24.2845C13.1109 23.7903 12.8669 22.9666 13.3277 22.1567C14.3172 20.3857 15.3202 18.6148 16.3503 16.8576C16.8382 16.0339 17.6514 15.8279 18.4918 16.281C18.9662 16.5418 19.427 16.8438 19.9014 17.0909C20.0369 17.1596 20.2809 17.1459 20.43 17.0772C20.8095 16.885 21.1348 16.583 21.5279 16.4457C22.07 16.2398 22.2056 15.8966 22.1514 15.3475C22.1107 14.9219 22.1242 14.4963 22.1514 14.057C22.1785 13.2058 22.8019 12.5469 23.6423 12.5469C25.6889 12.5332 27.7356 12.5332 29.7958 12.5469C30.6497 12.5606 31.2732 13.2196 31.3003 14.0982C31.3138 14.6473 31.2732 15.1964 31.3138 15.7456C31.3274 15.924 31.4629 16.1437 31.612 16.2398C32.0457 16.5418 32.5201 16.7615 32.9539 17.0498C33.1843 17.2008 33.3469 17.2282 33.5909 17.0772C34.0382 16.7889 34.4855 16.5281 34.9463 16.281C35.8138 15.8142 36.6134 16.0201 37.1149 16.885C38.1179 18.6148 39.1074 20.3445 40.0833 22.088C40.5712 22.9529 40.3408 23.7766 39.5004 24.2983C39.0667 24.5728 38.633 24.8337 38.1857 25.0671C37.9417 25.1906 37.8468 25.3279 37.874 25.6299C37.9146 26.179 37.8604 26.7282 37.8875 27.2773C37.9011 27.442 38.0095 27.6617 38.145 27.7441C38.5923 28.0461 39.0803 28.2932 39.5411 28.5815C40.3272 29.0757 40.5712 29.8994 40.1104 30.7094C39.1209 32.5078 38.1044 34.2787 37.0607 36.0497C36.5999 36.8322 35.7866 37.0244 34.987 36.5988C34.499 36.338 34.0246 36.0222 33.5231 35.7751C33.3876 35.7065 33.1436 35.7202 32.9945 35.7888C32.6286 35.9673 32.3168 36.2693 31.9373 36.4066C31.3545 36.6263 31.1919 36.9832 31.2732 37.5735C31.3274 37.9579 31.2867 38.356 31.2867 38.7541C31.2596 39.6602 30.6361 40.3054 29.7416 40.3192C28.7386 40.3603 27.722 40.3466 26.7055 40.3466ZM36.7354 30.5172C36.2881 30.2563 35.8951 30.0367 35.502 29.7896C34.8108 29.364 34.6346 28.8149 34.7023 28.0049C34.7701 26.989 34.7837 25.9594 34.7159 24.9435C34.6481 24.0374 34.8108 23.5158 35.5969 23.049C35.9764 22.8293 36.3424 22.6097 36.7354 22.3626C36.2204 21.4565 35.7324 20.6054 35.2174 19.6993C34.7837 19.9464 34.377 20.1935 33.9704 20.4269C33.3063 20.8113 32.6692 20.7564 32.0864 20.2484C31.2867 19.5483 30.3786 19.0266 29.3892 18.656C28.603 18.3677 28.2777 17.8735 28.2642 17.0223C28.2642 16.5693 28.2642 16.1162 28.2642 15.6632C27.207 15.6632 26.2311 15.6632 25.2146 15.6632C25.2146 16.13 25.2146 16.5693 25.2146 17.0223C25.201 17.8872 24.8486 18.299 24.1031 18.6834C23.1815 19.1502 22.2869 19.6719 21.4465 20.2484C20.7282 20.7427 20.1996 20.8388 19.427 20.3995C19.0475 20.1798 18.668 19.9601 18.2614 19.7268C17.9903 20.1935 17.7463 20.6191 17.5023 21.0447C17.2584 21.484 17.0008 21.9233 16.7433 22.39C17.177 22.6509 17.5701 22.8705 17.9632 23.1176C18.6409 23.5295 18.8171 24.0923 18.7629 24.9023C18.6951 25.9182 18.6815 26.9478 18.7493 27.9637C18.8171 28.8698 18.6544 29.3915 17.8683 29.8582C17.5023 30.0779 17.1228 30.2975 16.7298 30.5309C17.2448 31.437 17.7328 32.3018 18.2478 33.1942C18.6544 32.9608 19.0339 32.7412 19.4135 32.5215C20.186 32.0822 20.7146 32.1783 21.433 32.6588C22.2869 33.2354 23.1815 33.757 24.0896 34.2238C24.835 34.6082 25.201 35.02 25.201 35.8849C25.201 36.338 25.201 36.791 25.201 37.244C26.2582 37.244 27.2341 37.244 28.2506 37.244C28.2506 36.7635 28.2506 36.2968 28.2506 35.8437C28.2642 35.0475 28.5895 34.5533 29.3214 34.2787C30.338 33.8943 31.2596 33.3727 32.0729 32.6588C32.6557 32.1508 33.2792 32.0959 33.9569 32.4803C34.3635 32.7137 34.7701 32.9471 35.2174 33.2079C35.7189 32.2881 36.2204 31.437 36.7354 30.5172Z" fill="#646464"/>
<path d="M26.7471 20.7839C29.8239 20.7976 32.3314 23.3511 32.3178 26.4674C32.3043 29.5837 29.7832 32.1234 26.7065 32.1097C23.6297 32.096 21.1222 29.5425 21.1358 26.4262C21.1494 23.3099 23.6704 20.7701 26.7471 20.7839ZM29.2682 26.4262C29.2546 25.0122 28.1025 23.859 26.6929 23.8727C25.3104 23.8865 24.1854 25.0396 24.1854 26.4399C24.1854 27.8677 25.324 29.0208 26.7336 29.0208C28.1432 29.0208 29.2817 27.8539 29.2682 26.4262Z" fill="#646464"/>
</svg>
