<svg width="130" height="130" viewBox="0 0 130 130" fill="none" xmlns="http://www.w3.org/2000/svg">
<path fill-rule="evenodd" clip-rule="evenodd" d="M60.2074 0.127121C59.7781 0.177327 58.3147 0.344335 56.9554 0.498597C45.512 1.79694 33.6477 6.84023 24.1753 14.4329C21.3414 16.7044 16.728 21.3174 14.4563 24.1511C1.61895 40.1639 -3.01657 61.1426 1.95404 80.731C4.91569 92.4031 10.608 102.425 19.0965 110.913C27.5777 119.393 37.7187 125.152 49.2807 128.054C63.2323 131.556 77.6053 130.32 91.2965 124.442C105.556 118.319 118.351 105.525 124.474 91.2666C126.822 85.7987 128.596 79.6228 129.405 74.0975C130.29 68.06 130.18 60.1762 129.127 54.0885C126.815 40.7304 120.563 28.6907 110.944 19.0727C100.041 8.17031 86.4128 1.77483 70.7813 0.225453C68.2773 -0.0229787 61.9952 -0.0812496 60.2074 0.127121ZM74.9064 4.75887C83.5695 6.35273 91.3264 9.41039 98.1907 13.937C102.338 16.6721 104.881 18.7314 108.054 21.9227C117.998 31.9274 123.975 44.2735 125.657 58.2866C126.078 61.8003 125.837 71.6439 125.251 74.8779C123.646 83.726 120.621 91.2988 115.789 98.5718C113.224 102.432 110.085 106.263 109.766 105.923C109.653 105.803 109.188 104.801 108.733 103.697C107.539 100.801 104.562 96.454 101.846 93.6401C95.8331 87.4111 88.9467 83.4895 80.3169 81.3798C74.6327 79.9901 71.9825 79.699 65.0203 79.699C58.0582 79.699 55.408 79.9901 49.7237 81.3798C45.8664 82.3228 43.4341 83.1994 40.2464 84.7954C30.8957 89.4771 24.2645 96.3791 20.6798 105.161L20.2648 106.177L19.5884 105.551C17.272 103.403 12.6297 96.4868 10.2633 91.6568C7.51703 86.0519 6.02189 81.5205 4.85533 75.2681C4.34022 72.5062 4.27414 71.3221 4.2822 64.9927C4.29235 57.2367 4.47446 55.6025 5.98469 49.7119C8.58628 39.564 14.3584 29.5198 21.9515 21.9274C31.4033 12.4766 43.7096 6.35273 56.9554 4.50888C60.5755 4.00499 71.6466 4.15899 74.9064 4.75887ZM61.1302 23.6667C53.6597 24.9052 46.6216 30.5401 43.6597 37.6543C38.9792 48.8967 44.1251 62.1567 55.171 67.3162C58.7716 68.9983 60.1366 69.2688 65.0203 69.2688C69.9969 69.2688 71.3547 68.9897 75.0508 67.2072C82.6571 63.5385 87.5653 56.1418 88.0853 47.5635C88.6897 37.5921 82.1339 27.9587 72.4926 24.6511C68.8923 23.4157 64.7883 23.0603 61.1302 23.6667Z" fill="#C4C4C4"/>
</svg>
