<svg width="66" height="66" viewBox="0 0 66 66" fill="none" xmlns="http://www.w3.org/2000/svg">
<path d="M39.3346 27.9717L42.4267 31.0639L35.7757 34.506L39.3346 27.9717ZM61.5045 19.9789C59.6376 21.9042 57.0705 22.5459 54.6202 22.1375L51.003 25.7547C52.1698 29.1969 51.4114 33.1642 48.6693 35.9646L43.1851 30.4804L39.9763 27.33L34.4922 21.8458C37.2926 19.1038 41.2015 18.3453 44.702 19.5122L48.3192 15.8366C47.9108 13.4446 48.5526 10.8775 50.3612 9.0106C50.3612 9.0106 50.3612 9.0106 50.3612 8.95226L50.4195 8.89392V8.95226C51.4114 8.3105 54.4451 10.0608 57.4206 13.0362C60.396 15.9533 62.1463 18.9871 61.5045 19.9789ZM56.8955 13.4446C54.6202 11.1693 52.4032 9.76905 51.9364 10.2941C51.4114 10.7609 52.8699 12.9779 55.0869 15.2532C57.3039 17.5285 59.5209 18.9287 60.046 18.462C60.571 17.8786 59.1125 15.6616 56.8955 13.4446Z" fill="#646464"/>
<path d="M34.2874 11.8025L33.849 10.688C33.423 9.66962 32.346 9.27327 31.3693 9.64495L28.7816 10.7641C28.8023 10.1755 28.7271 9.59951 28.5016 8.9943C27.7039 6.9992 25.3871 6.0813 23.392 6.87893C21.3969 7.67655 20.479 9.99337 21.2766 11.9885C21.5439 12.5394 21.9071 13.0778 22.2996 13.4659L18.8311 14.9442C17.8127 15.3702 17.4164 16.4472 17.788 17.4239L18.2808 18.58L13.8774 20.3757C12.308 21.0689 11.5194 22.8806 12.2126 24.45L24.2812 53.6794C24.9201 55.207 26.7319 55.9956 28.3555 55.3441L53.1815 45.0712C54.7509 44.378 55.4977 42.6206 54.8045 41.0512L42.7902 11.8635C42.097 10.2942 40.2853 9.50559 38.7577 10.1445L34.2874 11.8025ZM22.6957 11.2661C22.2447 10.0557 22.7537 8.71984 23.9099 8.22708C25.066 7.73432 26.4561 8.28506 26.9614 9.53722C27.2412 10.1842 27.137 10.8813 26.8699 11.4532L24.0901 12.5974C23.4765 12.3846 22.9755 11.913 22.6957 11.2661ZM51.2647 40.4883C51.5696 41.3273 51.2024 42.254 50.4178 42.6006L28.551 51.6082C27.7663 51.9548 26.7853 51.5459 26.4387 50.7613L15.744 24.5745C15.3974 23.7899 15.8063 22.8089 16.6452 22.504L19.5627 21.293C19.8676 22.1319 20.7943 22.4991 21.579 22.1525L34.639 16.7362C35.4779 16.4314 35.8451 15.5047 35.4985 14.72L38.416 13.5089C39.2007 13.1623 40.1274 13.5295 40.474 14.3142L51.2647 40.4883Z" fill="#646464"/>
</svg>
