<svg width="50" height="33" viewBox="0 0 50 33" fill="none" xmlns="http://www.w3.org/2000/svg">
<path d="M49.1445 15.4747C48.8895 14.4643 48.2393 13.7259 47.589 12.9746C44.1338 8.98482 40.245 5.52615 35.604 3.01311C32.34 1.25139 28.8975 0.111452 25.1745 0.00782157C21.5407 -0.0958091 18.1492 0.836867 14.8979 2.41723C10.4099 4.59348 6.61042 7.71535 3.20616 11.3554C2.42841 12.1844 1.67616 13.0523 0.962154 13.9332C-0.0960999 15.2415 -0.0960999 16.9255 0.962154 18.208C4.45566 22.4439 8.44642 26.1098 13.2022 28.843C16.1984 30.5659 19.386 31.7317 22.8412 32.0426C26.169 32.3406 29.382 31.8224 32.4802 30.5789C36.879 28.8301 40.653 26.0968 44.0445 22.8195C45.4343 21.4982 46.6965 20.0344 48.0225 18.6354C48.558 18.0655 48.915 17.3919 49.1445 16.6405C49.1445 16.2519 49.1445 15.8633 49.1445 15.4747ZM24.6772 26.7834C18.8505 26.7963 14.1329 22.0164 14.1202 16.0835C14.1074 10.1636 18.8122 5.37071 24.6517 5.35775C30.4785 5.3448 35.196 10.1248 35.2087 16.0576C35.2215 21.9775 30.5167 26.7704 24.6772 26.7834Z" fill="#646464"/>
<path d="M24.6639 23.7263C28.8077 23.7263 32.2119 20.2806 32.2119 16.0706C32.2119 11.8606 28.8204 8.40195 24.6766 8.40195C20.5329 8.40195 17.1286 11.8477 17.1286 16.0577C17.1159 20.2806 20.5074 23.7263 24.6639 23.7263Z" fill="#646464"/>
</svg>
